<svg xmlns="http://www.w3.org/2000/svg" viewBox="0 0 512 512">
  <defs>
    <linearGradient id="bg" x1="108" y1="36" x2="392" y2="486" gradientUnits="userSpaceOnUse">
      <stop offset="0" stop-color="#363643"/>
      <stop offset="0.45" stop-color="#171821"/>
      <stop offset="1" stop-color="#101119"/>
    </linearGradient>
    <linearGradient id="shine" x1="256" y1="34" x2="256" y2="184" gradientUnits="userSpaceOnUse">
      <stop offset="0" stop-color="#ffffff" stop-opacity="0.28"/>
      <stop offset="1" stop-color="#ffffff" stop-opacity="0"/>
    </linearGradient>
    <linearGradient id="red" x1="166" y1="78" x2="404" y2="438" gradientUnits="userSpaceOnUse">
      <stop offset="0" stop-color="#ff4052"/>
      <stop offset="1" stop-color="#d80f2f"/>
    </linearGradient>
    <filter id="shadow" x="-18%" y="-18%" width="136%" height="148%">
      <feDropShadow dx="0" dy="18" stdDeviation="18" flood-color="#000" flood-opacity="0.34"/>
    </filter>
    <filter id="markShadow" x="-20%" y="-20%" width="140%" height="140%">
      <feDropShadow dx="0" dy="8" stdDeviation="7" flood-color="#000" flood-opacity="0.26"/>
    </filter>
  </defs>

  <rect x="35" y="35" width="442" height="442" rx="91" fill="url(#bg)" filter="url(#shadow)"/>
  <rect x="36" y="36" width="440" height="188" rx="90" fill="url(#shine)"/>
  <path d="M80 58L222 477H90c-31 0-55-24-55-55V132z" fill="url(#red)" opacity="0.3"/>
  <path d="M312 477L190 35h80l136 442z" fill="url(#red)" opacity="0.82"/>

  <g filter="url(#markShadow)">
    <path d="M164 374L245 141" stroke="#ffffff" stroke-width="39" stroke-linecap="square"/>
    <path d="M267 141L352 374" stroke="#ffffff" stroke-width="39" stroke-linecap="square"/>
    <path d="M123 275H389" stroke="#ffffff" stroke-width="34" stroke-linecap="square"/>
    <path d="M238 258H281L267 292H224z" fill="#ff243e"/>
  </g>

  <path d="M245 141C226 187 210 237 198 292M267 141C288 192 304 242 316 292"
    fill="none" stroke="#ffffff" stroke-width="5" stroke-linecap="round" opacity="0.24"/>
</svg>
